<?xml version="1.0" standalone="no"?><!DOCTYPE svg PUBLIC "-//W3C//DTD SVG 1.1//EN" "http://www.w3.org/Graphics/SVG/1.1/DTD/svg11.dtd"><svg width="128" height="128" viewBox="0 0 128 128" version="1.1" xmlns="http://www.w3.org/2000/svg" xmlns:xlink="http://www.w3.org/1999/xlink"><defs><style type="text/css"><![CDATA[
@font-face { font-family: ifont; src: url(http://at.alicdn.com/t/font_1442373896_4754455.eot?#iefix) format(embedded-opentype), url(http://at.alicdn.com/t/font_1442373896_4754455.woff) format(woff), url(http://at.alicdn.com/t/font_1442373896_4754455.ttf) format(truetype), url(http://at.alicdn.com/t/font_1442373896_4754455.svg#ifont) format(svg); }

]]></style></defs><g class="transform-group"><g transform="scale(0.125, 0.125)"><path d="M681.998789 857.57869 348.512509 857.57869c-16.016789 0-28.999474 12.984732-28.999474 28.999474 0 16.014742 12.982686 28.999474 28.999474 28.999474l333.48628 0c16.014742 0 28.999474-12.984732 28.999474-28.999474C710.998263 870.562399 698.013531 857.57869 681.998789 857.57869zM981.715965 404.873144l-3.798513-24.568559-76.787874 0c-26.090215-78.470189-77.04677-148.635225-143.911644-197.965747-12.881378-9.508561-31.045063-6.763031-40.549531 6.118348-9.508561 12.887518-6.768147 31.043017 6.120394 40.551578 52.052516 38.404682 92.842525 91.51939 116.631324 151.295821L195.539488 380.304585c51.947116-131.738393 178.514743-218.701001 321.961806-218.701001 16.016789 0 28.997428-12.982686 28.997428-28.999474s-12.980639-28.999474-28.997428-28.999474c-87.439468 0-170.665984 27.473725-240.682641 79.44847-67.356061 49.999764-116.695792 118.132514-142.947689 197.251479L52.593845 380.304585l-3.798513 24.568559C45.629223 425.356664 44.023656 446.157409 44.023656 466.698235c0 142.513808 75.975369 276.095175 203.234751 357.326245l7.136537 4.555759 8.465812 0 504.789785 0 8.467859 0 7.136537-4.555759C910.511249 742.79341 986.488665 609.215112 986.488665 466.698235 986.488665 446.157409 984.881051 425.356664 981.715965 404.873144zM759.031233 770.58129 271.483134 770.58129C165.207669 699.709149 102.021581 586.704422 102.021581 466.698235c0-9.423627 0.394996-18.913768 1.180895-28.395724l824.109414 0c0.781806 9.481955 1.178849 18.972097 1.178849 28.395724C928.490739 586.704422 865.302605 699.712219 759.031233 770.58129zM638.501112 205.101261c23.986297 0 43.4987-19.513426 43.4987-43.4987s-19.512403-43.4987-43.4987-43.4987c-23.986297 0-43.4987 19.513426-43.4987 43.4987S614.513792 205.101261 638.501112 205.101261z" fill="#eb4f38"></path></g></g></svg>